<svg version="1.1" id="Layer_1" xmlns="http://www.w3.org/2000/svg" xmlns:xlink="http://www.w3.org/1999/xlink" x="0px" y="0px"
	 width="100%" viewBox="0 0 414 168" enable-background="new 0 0 414 168" xml:space="preserve">
<path fill="#FBFDFD" opacity="1.000000" stroke="none" 
	d="
M311.000000,169.000000 
	C207.333359,169.000000 104.166725,169.000000 1.000069,169.000000 
	C1.000046,113.000046 1.000046,57.000095 1.000023,1.000107 
	C138.999908,1.000071 276.999817,1.000071 414.999817,1.000036 
	C414.999878,56.999893 414.999878,112.999786 414.999939,168.999847 
	C380.500000,169.000000 346.000000,169.000000 311.000000,169.000000 
M321.743622,126.378807 
	C321.481964,126.367378 321.220306,126.355949 320.636353,125.703400 
	C317.887451,121.671326 315.138550,117.639252 311.790222,112.727913 
	C309.627838,120.413918 310.212372,133.171082 312.989258,136.078323 
	C312.989258,130.595001 312.989258,125.822990 312.989258,121.050980 
	C313.382751,120.942299 313.776245,120.833618 314.169708,120.724937 
	C316.565918,124.128471 318.962097,127.532013 321.604279,131.284927 
	C322.540924,129.880722 323.254578,128.810822 324.522156,127.400200 
	C326.029633,125.209442 327.537109,123.018677 329.044617,120.827911 
	C329.955780,123.716057 329.900452,126.152390 329.971832,128.584991 
	C330.038971,130.872894 330.239777,133.156876 330.434448,136.290695 
	C333.261261,132.889023 333.695648,119.624268 331.333588,112.619781 
	C328.192047,117.477448 325.627014,121.443695 322.779785,125.538750 
	C322.600433,125.665619 322.493622,125.837555 321.743622,126.378807 
M185.210342,63.278362 
	C184.885559,62.775917 184.560776,62.273476 184.210297,61.962440 
	C184.210297,61.962440 184.288361,61.785793 184.295746,61.001389 
	C179.416031,50.414818 184.032501,39.147533 181.883316,28.009005 
	C175.705688,28.009005 169.455917,28.009005 162.663361,28.009005 
	C162.663361,37.614223 160.835907,47.340271 163.130890,55.969997 
	C165.932373,66.504242 172.195496,76.117905 176.991089,86.693298 
	C177.258682,87.162376 177.526260,87.631447 177.882294,88.823380 
	C178.891891,91.075752 179.612396,93.529289 180.997696,95.520241 
	C182.222488,97.280487 184.033875,99.500862 185.859283,99.789124 
	C189.358032,100.341644 193.067657,99.816231 196.650909,99.401840 
	C197.590820,99.293144 198.388031,97.950447 199.149719,97.057739 
	C199.149719,97.057739 199.190933,97.206535 199.836258,96.903610 
	C202.542145,90.486465 205.248016,84.069321 208.460571,77.855148 
	C208.626465,77.929878 208.792343,78.004601 208.962402,78.825478 
	C210.235931,82.068085 211.564896,85.290199 212.773041,88.556992 
	C217.151291,100.395767 217.663574,100.823875 230.298843,99.602577 
	C231.921844,99.445702 234.021637,98.094398 234.816498,96.685013 
	C236.916016,92.962372 238.419785,88.903732 240.640854,84.426888 
	C240.761353,83.958542 240.881836,83.490204 241.521271,82.572304 
	C243.308334,78.817741 244.734528,74.833931 246.947739,71.350090 
	C254.659393,59.211052 256.097321,45.936245 254.468369,32.098038 
	C254.271683,30.427095 252.739655,27.646463 251.651978,27.559349 
	C245.938950,27.101770 240.169754,27.345261 233.737335,27.345261 
	C234.644516,44.258396 236.601959,60.215714 225.358856,73.744850 
	C219.885666,62.624649 216.837708,51.240788 218.333694,38.903439 
	C218.633194,36.433418 218.894806,33.878952 218.565613,31.445719 
	C218.397110,30.200123 216.934525,28.197725 215.969009,28.144981 
	C210.245377,27.832323 204.496017,27.990690 198.103134,27.990690 
	C199.002258,42.727856 199.239716,56.681473 193.415131,70.402748 
	C192.356232,71.432594 191.297348,72.462440 190.173782,72.823174 
	C188.837280,70.815521 187.500778,68.807877 186.114502,66.901344 
	C186.114502,66.901344 186.227020,66.907799 186.255188,66.198273 
	C185.880493,65.415489 185.505798,64.632698 185.094315,63.935303 
	C185.094315,63.935303 185.186935,63.927113 185.210342,63.278362 
M364.571777,117.880875 
	C364.571777,120.598053 364.571777,123.315239 364.571777,126.032417 
	C365.053192,126.178520 365.534607,126.324623 366.016022,126.470726 
	C366.461395,125.511665 367.328613,124.524757 367.267517,123.599113 
	C367.123962,121.423843 366.536804,119.277855 367.030426,116.950417 
	C371.524048,116.763161 376.017639,116.575905 381.087555,116.009132 
	C380.671722,115.451584 380.255890,114.894035 378.935913,114.261414 
	C374.669128,114.294907 370.402344,114.328400 365.307800,114.227356 
	C364.210144,114.238754 363.112518,114.250145 361.099243,114.046097 
	C355.377930,114.122772 349.656616,114.199455 343.042267,114.453972 
	C341.814667,114.355499 340.587067,114.257019 339.571899,114.175591 
	C339.571899,121.524948 339.571899,128.577408 339.571899,135.629852 
	C340.071228,135.664719 340.570526,135.699585 341.069855,135.734436 
	C341.326447,134.289459 341.769653,132.848923 341.804291,131.398636 
	C341.903534,127.238731 341.729279,123.069649 341.930084,118.917122 
	C341.968781,118.116348 343.221771,117.374283 344.720642,116.880501 
	C347.083832,117.264359 349.447052,117.648216 351.724609,118.960556 
	C351.802399,124.480202 351.880157,129.999847 351.957916,135.519501 
	C352.706085,135.499756 353.454254,135.480011 354.202423,135.460266 
	C354.202423,129.651703 354.202423,123.843140 354.770721,117.566536 
	C357.181061,117.042259 359.591431,116.517982 362.487518,116.330338 
	C363.230957,116.571960 363.974365,116.813591 364.571777,117.880875 
M43.058990,133.014542 
	C39.105484,132.946381 35.151974,132.878220 30.469343,132.141724 
	C30.469343,130.064148 30.469343,127.986580 30.469343,125.723801 
	C33.138588,125.545212 35.415627,125.392868 37.692669,125.240524 
	C37.664867,125.036217 37.637070,124.831917 37.609272,124.627617 
	C35.375507,124.511520 33.141743,124.395424 31.042088,124.286301 
	C29.141819,116.884705 29.141954,116.907944 36.194244,116.866615 
	C38.915005,116.850677 41.634991,116.702477 44.355328,116.614532 
	C44.319080,116.013458 44.282829,115.412384 44.246582,114.811310 
	C31.480419,114.811310 18.714254,114.811310 5.948092,114.811310 
	C5.913444,115.316811 5.878796,115.822319 5.844148,116.327820 
	C8.626630,116.632317 11.409111,116.936813 15.375223,117.370834 
	C15.375223,123.452087 15.375223,129.529739 15.375223,135.607407 
	C15.947102,135.562073 16.518980,135.516739 17.090858,135.471405 
	C17.090858,132.437820 17.090862,129.404221 17.090857,126.370621 
	C17.090841,117.274452 17.090658,117.271416 26.147146,116.732391 
	C26.410400,116.716728 26.686979,116.924911 27.387768,117.193977 
	C27.387768,118.821106 27.383568,120.615860 27.388649,122.410591 
	C27.399019,126.074066 27.330252,129.741425 27.499161,133.397705 
	C27.532669,134.123016 28.485855,134.805862 29.014935,135.508286 
	C29.555609,134.812958 30.096283,134.117630 30.695326,133.336914 
	C30.695326,133.336914 30.649473,133.069595 30.935450,132.832687 
	C30.935450,132.832687 31.288990,132.719055 30.170040,133.362625 
	C31.098104,134.076263 31.999542,135.357986 32.958946,135.402939 
	C36.661514,135.576477 40.382599,135.355011 44.636074,135.254410 
	C44.414101,134.559494 44.192127,133.864594 43.058990,133.014542 
M183.880249,131.095520 
	C187.390839,123.693199 185.797867,118.363251 178.437439,114.439934 
	C177.453537,114.271790 176.469635,114.103645 175.168411,113.833138 
	C174.940430,113.797134 174.723663,113.831604 173.694839,113.878830 
	C172.411850,114.181107 171.044785,114.293999 169.860931,114.819580 
	C165.550064,116.733429 163.423584,120.065689 163.653992,124.858490 
	C163.884369,129.650864 165.416962,133.602585 170.369019,135.286148 
	C174.320618,136.629593 178.059601,136.578796 181.012924,133.012985 
	C181.012924,133.012985 181.052078,133.028305 181.535828,133.524933 
	C182.129990,132.877579 182.724152,132.230225 183.880249,131.095520 
M401.115051,116.342873 
	C397.384003,115.630142 393.652985,114.917412 389.081543,114.138908 
	C388.093353,114.502693 386.239807,114.881325 386.245789,115.228058 
	C386.347839,121.180771 386.679443,127.129547 386.893280,133.705658 
	C389.606049,137.405319 393.416351,135.258453 396.651855,135.255127 
	C401.089844,135.250565 404.508392,133.081467 406.182587,127.816658 
	C407.758270,122.355309 406.118835,118.525337 401.115051,116.342873 
M149.006058,132.039047 
	C149.006058,126.073036 149.006058,120.107033 149.006058,114.141022 
	C148.308960,114.140053 147.611877,114.139076 146.914780,114.138107 
	C145.255844,120.318176 146.273804,126.708008 146.204269,133.898453 
	C151.180344,134.410965 156.152969,134.965851 161.137756,135.371460 
	C161.644669,135.412720 162.224655,134.556183 162.770721,134.116272 
	C162.705017,133.734131 162.639313,133.351990 162.573608,132.969849 
	C158.073425,132.969849 153.573257,132.969849 149.006058,132.039047 
M366.348785,125.778473 
	C365.798920,125.936424 365.249023,126.094376 364.699158,126.252335 
	C365.031403,126.684311 365.363647,127.116287 365.014984,127.775238 
	C362.855103,134.990021 363.353180,135.749649 370.275909,135.752899 
	C373.264954,135.754303 376.258209,135.820862 379.240753,135.676636 
	C380.260406,135.627319 381.253326,135.024994 382.258453,134.675339 
	C382.176666,134.104752 382.094910,133.534180 382.013123,132.963593 
	C377.094574,132.963593 372.176025,132.963593 367.548218,132.963593 
	C367.130005,130.254639 366.857697,128.490799 366.348785,125.778473 
M284.620819,116.457947 
	C284.066010,115.670036 283.511200,114.882133 282.956390,114.094223 
	C282.685760,115.075760 282.415131,116.057304 282.025269,117.962166 
	C282.025269,123.707298 282.025269,129.452423 282.025269,134.719147 
	C287.979065,134.719147 293.141815,134.719147 298.304535,134.719147 
	C298.285614,134.227768 298.266663,133.736374 298.247742,133.244995 
	C293.766144,133.244995 289.284546,133.244995 284.256134,133.244995 
	C284.256134,127.403061 284.256134,122.267929 284.620819,116.457947 
M262.293396,130.551605 
	C256.376312,135.745453 250.024719,132.599274 243.680038,131.145721 
	C246.866974,136.032623 251.681229,136.789139 256.210419,135.685577 
	C258.590973,135.105530 260.298279,131.762436 262.193451,129.108749 
	C262.314301,128.337402 262.768646,127.419037 262.503601,126.817795 
	C260.237244,121.676628 255.132156,123.460182 251.228638,122.213158 
	C249.746292,121.739616 248.564178,120.326294 247.245239,119.341309 
	C248.476578,118.396111 249.633484,117.321869 250.966568,116.553146 
	C251.793076,116.076546 252.886978,116.063660 253.860870,115.842621 
	C252.627686,115.072594 251.553833,115.562851 250.659988,115.337914 
	C247.058655,114.431625 244.516754,115.479790 244.268250,119.294922 
	C244.000977,123.398140 247.154831,124.564644 250.528091,124.894539 
	C254.935623,125.325577 259.570312,125.024300 262.293396,130.551605 
M111.740349,128.453796 
	C107.133553,123.637451 102.526756,118.821114 97.553574,113.621719 
	C97.553574,121.671181 97.553574,128.604370 97.553574,135.537552 
	C98.166191,135.587585 98.778809,135.637604 99.391426,135.687637 
	C99.660896,130.936646 99.930367,126.185646 100.244888,120.640419 
	C103.503639,124.094345 106.262840,127.018799 109.273079,130.563751 
	C110.836327,132.261414 112.399582,133.959076 114.611618,136.361298 
	C114.611618,128.143005 114.611618,121.228348 114.611618,113.983086 
	C111.803352,116.188454 111.393822,119.616737 111.740349,128.453796 
M140.833664,119.415802 
	C139.037842,118.273514 137.242020,117.131233 135.126572,115.218002 
	C129.984711,112.862755 125.133499,113.839233 121.868927,117.886589 
	C119.153137,121.253548 118.963112,127.822968 121.476387,131.456802 
	C124.334717,135.589554 129.261536,137.130066 134.092880,135.401703 
	C139.902374,133.323425 142.086670,128.111267 140.833664,119.415802 
M87.513763,94.064346 
	C87.518509,73.731598 87.345665,53.396362 87.629509,33.067509 
	C87.722122,26.434408 83.464417,22.933067 77.628418,23.013754 
	C57.466156,23.292521 37.297699,23.107861 17.131651,23.135576 
	C9.104053,23.146610 6.918190,25.421513 6.914532,33.627449 
	C6.905616,53.626892 6.906019,73.626343 6.911492,93.625786 
	C6.913935,102.554489 8.786722,104.497543 17.761209,104.519012 
	C37.760548,104.566856 57.760105,104.557968 77.759506,104.528664 
	C84.955986,104.518120 87.028160,102.423843 87.513763,94.064346 
M148.483170,78.011665 
	C145.858444,74.245667 142.957306,70.631508 140.759506,66.630966 
	C139.994278,65.238068 140.225189,61.980778 141.269196,61.128784 
	C147.217499,56.274475 150.566940,49.872799 153.099930,42.933834 
	C154.831848,38.189354 156.197998,33.311348 158.055634,27.459990 
	C151.274277,27.459990 145.815170,27.238792 140.398895,27.622398 
	C139.115707,27.713278 137.488449,29.619616 136.856400,31.058489 
	C134.316559,36.840458 132.564346,43.015160 129.578003,48.534458 
	C128.092697,51.279560 124.876663,53.705524 121.893707,54.883709 
	C116.955910,56.833988 115.246338,55.220032 115.356827,49.787411 
	C115.482094,43.628235 115.942055,37.471867 115.901688,31.316605 
	C115.893326,30.040764 114.385864,27.726330 113.469467,27.675056 
	C107.532875,27.342905 101.568642,27.504803 95.801361,27.504803 
	C95.450058,28.127827 95.153862,28.408403 95.152519,28.690382 
	C95.045647,51.154827 94.895302,73.619858 95.056442,96.082626 
	C95.065269,97.312691 97.579872,99.394211 99.107231,99.576233 
	C103.214066,100.065666 107.418694,99.693634 111.583237,99.752533 
	C114.935524,99.799942 116.338562,98.412743 116.135910,94.912064 
	C115.789619,88.929962 115.543480,82.915527 115.823616,76.941330 
	C115.898804,75.337975 117.776886,73.403084 119.336311,72.483925 
	C119.987938,72.099846 122.477760,73.645973 123.249901,74.870560 
	C125.904419,79.080521 128.208786,83.514877 130.574875,87.902405 
	C137.309952,100.391541 137.296021,100.398994 151.648422,99.908913 
	C152.147888,99.891861 152.650604,99.909004 153.146561,99.858597 
	C157.566818,99.409279 158.877304,97.558403 156.951675,93.551926 
	C154.504700,88.460693 151.583450,83.597412 148.483170,78.011665 
M311.013977,61.742195 
	C311.225372,59.312366 311.436768,56.882542 311.662170,54.291668 
	C303.978851,54.291668 296.697418,54.045254 289.442963,54.381721 
	C284.906525,54.592125 283.154785,52.962769 283.077087,48.500500 
	C282.992157,43.622494 286.020782,43.838974 289.386475,43.878944 
	C297.133545,43.970943 304.882416,43.908108 313.235229,43.908108 
	C312.961700,40.304234 312.506134,36.379112 312.407990,32.445072 
	C312.302002,28.197920 310.060577,27.282160 306.249237,27.334806 
	C293.942902,27.504803 281.632568,27.438730 269.324127,27.385824 
	C262.005615,27.354366 262.020142,27.287645 262.557281,34.815491 
	C262.734863,37.304546 262.953461,39.801979 262.923035,42.292767 
	C262.711761,59.589008 262.516357,76.886230 262.126953,94.178886 
	C262.042297,97.938721 263.012756,99.458740 267.099182,99.451065 
	C281.079590,99.424797 295.060425,99.823090 309.042053,99.912575 
	C310.304443,99.920654 312.524994,99.067940 312.685883,98.283676 
	C313.766388,93.017639 314.409760,87.661911 315.295990,81.649033 
	C310.877777,81.844673 307.595642,82.083900 304.311554,82.114540 
	C298.662109,82.167252 292.999023,82.313408 287.365021,82.000229 
	C282.391602,81.723778 283.356262,77.616692 283.164368,74.417473 
	C282.949280,70.831413 285.470062,71.022362 287.877350,71.042725 
	C292.538971,71.082153 297.202789,71.020630 301.862152,71.139175 
	C310.652191,71.362816 310.651154,71.403511 311.013977,61.742195 
M321.535370,39.953384 
	C320.441986,43.468479 322.164734,44.268341 325.315399,44.206001 
	C331.829010,44.077118 338.346954,44.167156 345.759277,44.167156 
	C344.432495,46.691208 343.701294,48.332241 342.756561,49.839409 
	C336.043396,60.548901 329.374237,71.287758 322.506805,81.898010 
	C319.041321,87.252296 321.376282,92.665108 322.547180,97.756226 
	C322.823914,98.959366 328.328979,99.070068 331.456360,99.467491 
	C333.425446,99.717720 335.445496,99.590103 337.442749,99.591705 
	C347.890869,99.600113 358.339020,99.595627 369.439819,99.595627 
	C369.928345,93.639999 370.416260,87.691849 370.907654,81.700981 
	C361.252838,82.196922 352.772919,82.632515 343.249481,83.121704 
	C344.680176,80.511345 345.309418,79.184021 346.095520,77.957191 
	C352.464417,68.017982 358.360809,57.721409 365.423370,48.300007 
	C370.367065,41.705170 370.223450,35.272560 368.473846,27.811510 
	C366.591949,27.675932 364.793640,27.465405 362.991913,27.430285 
	C354.172943,27.258381 345.352539,27.158081 336.533569,26.985544 
	C324.038177,26.741079 324.038513,26.723524 321.535370,39.953384 
M379.404144,66.503883 
	C379.043671,75.972847 378.782013,85.447151 378.270325,94.907944 
	C378.085663,98.321754 379.208252,99.851379 382.700867,99.747444 
	C386.854950,99.623848 391.019165,99.610085 395.172150,99.750504 
	C398.751556,99.871521 400.028992,98.518570 400.036011,94.790092 
	C400.075653,73.684311 400.313751,52.578217 400.628357,31.474382 
	C400.674225,28.397402 399.637299,27.270973 396.635376,27.381811 
	C392.492706,27.534767 388.305939,27.804712 384.203796,27.383797 
	C379.921356,26.944376 378.713287,28.426878 378.856750,32.577450 
	C379.235840,43.545845 379.247528,54.526943 379.404144,66.503883 
M226.520767,127.531090 
	C228.866241,126.495758 231.211700,125.460434 233.144653,124.607201 
	C226.916046,123.682640 226.069748,122.709084 227.246826,117.102303 
	C231.719864,116.881004 236.234207,116.657654 240.748566,116.434311 
	C240.721741,115.844864 240.694901,115.255417 240.668060,114.665970 
	C235.195862,114.665970 229.723648,114.665970 223.962982,114.665970 
	C223.962982,121.342552 223.962982,128.251511 223.962982,135.707672 
	C229.864716,135.150070 235.720474,136.808548 241.179245,134.730499 
	C241.135361,134.121613 241.091461,133.512711 241.047562,132.903824 
	C236.302322,132.903824 231.557068,132.903824 226.583572,132.903824 
	C226.583572,131.124420 226.583572,129.811783 226.520767,127.531090 
M206.439972,117.151245 
	C206.022491,116.510246 205.753326,115.625633 205.164032,115.266846 
	C200.507843,112.432007 193.377167,113.817024 190.359390,118.051682 
	C187.097397,122.629051 188.057892,130.458496 192.597519,133.791687 
	C196.516602,136.669250 200.845215,136.921417 205.251465,134.616455 
	C209.692795,132.293182 209.570099,128.533432 208.700638,123.975182 
	C205.963669,124.153503 203.408310,124.320000 200.852966,124.486488 
	C200.820221,125.012268 200.787491,125.538048 200.754745,126.063828 
	C202.611938,126.465324 204.469116,126.866821 207.001282,127.414246 
	C206.125992,129.085037 205.731812,131.095108 204.788589,131.398560 
	C202.120834,132.256775 198.952789,133.320694 196.507263,132.576660 
	C194.378632,131.929047 191.897781,129.129257 191.482758,126.921417 
	C190.831909,123.459000 190.571991,118.701942 195.284317,117.568214 
	C198.554474,116.781471 202.242126,117.729973 206.439972,117.151245 
M72.925865,121.614365 
	C72.925865,126.245216 72.925865,130.876068 72.925865,135.749359 
	C74.293968,135.401215 74.862503,135.357483 74.879051,135.237595 
	C75.320778,132.035889 75.705727,128.826355 76.131416,125.365097 
	C79.973022,125.365097 83.841690,125.365097 87.752815,125.365097 
	C87.955254,128.986481 88.140068,132.292542 88.363670,136.292419 
	C92.016563,132.236923 91.673729,116.152359 88.258667,114.067490 
	C88.076614,116.987869 87.906532,119.716209 87.743629,122.329430 
	C83.661819,122.329430 79.901978,122.329430 76.184952,122.329430 
	C75.696487,119.345039 75.259880,116.677444 74.823273,114.009857 
	C74.193756,114.106895 73.564240,114.203934 72.934723,114.300980 
	C72.934723,116.420021 72.934723,118.539070 72.925865,121.614365 
M65.660446,129.398636 
	C62.775604,133.059067 59.166271,134.627960 54.751568,132.548065 
	C51.199905,130.874786 49.763748,127.658020 50.286915,123.882698 
	C51.388695,115.931877 57.274006,116.001236 63.603542,116.303474 
	C60.729836,114.952225 57.868065,113.819580 55.130913,114.066780 
	C51.088467,114.431870 47.588646,119.604767 47.326984,124.393250 
	C47.058430,129.307785 49.827984,133.701569 54.244720,135.367950 
	C58.562458,136.996979 64.138824,135.844254 66.488052,132.529892 
	C66.999603,131.808167 66.411354,130.306915 65.660446,129.398636 
M301.695953,124.111916 
	C302.057220,127.902260 300.953125,131.905441 303.245880,135.454453 
	C304.324493,128.288406 304.720642,121.195320 303.868286,114.145859 
	C303.144073,114.152016 302.419861,114.158165 301.695648,114.164322 
	C301.695648,117.188858 301.695648,120.213387 301.695953,124.111916 
M214.741516,126.437698 
	C214.777725,129.442276 214.813950,132.446854 214.850159,135.451431 
	C215.440201,135.411072 216.030228,135.370712 216.620270,135.330353 
	C216.620270,128.300354 216.620270,121.270340 216.620270,114.240334 
	C215.987762,114.229240 215.355240,114.218155 214.722733,114.207062 
	C214.722733,117.961937 214.722733,121.716805 214.741516,126.437698 
M207.542313,117.440727 
	C206.943375,117.745964 206.344452,118.051201 205.745529,118.356445 
	C205.981461,118.742004 206.363174,119.485184 206.430679,119.457664 
	C207.088089,119.189636 207.692947,118.792717 207.542313,117.440727 
z"/>
<path fill="#262622" opacity="1.000000" stroke="none" 
	d="
M87.510803,94.509995 
	C87.028160,102.423843 84.955986,104.518120 77.759506,104.528664 
	C57.760105,104.557968 37.760548,104.566856 17.761209,104.519012 
	C8.786722,104.497543 6.913935,102.554489 6.911492,93.625786 
	C6.906019,73.626343 6.905616,53.626892 6.914532,33.627449 
	C6.918190,25.421513 9.104053,23.146610 17.131651,23.135576 
	C37.297699,23.107861 57.466156,23.292521 77.628418,23.013754 
	C83.464417,22.933067 87.722122,26.434408 87.629509,33.067509 
	C87.345665,53.396362 87.518509,73.731598 87.510803,94.509995 
M26.766207,46.672611 
	C26.561958,46.453228 26.318233,46.392632 25.350018,46.167439 
	C24.429306,46.167439 23.508593,46.167439 22.477478,46.167439 
	C23.382412,49.332958 24.185928,52.143711 24.467583,55.435707 
	C21.685804,56.867813 18.904026,58.299919 16.030252,59.779388 
	C18.191154,62.034611 20.056566,63.981449 21.917583,65.992157 
	C21.917583,65.992157 21.893898,65.931252 21.175877,65.919067 
	C19.241325,67.085510 14.697239,66.056046 17.299837,71.525497 
	C18.381273,71.939583 19.462709,72.353668 20.797148,72.693359 
	C20.797148,72.693359 21.014946,72.842049 21.055609,73.573273 
	C20.847633,75.432930 20.625248,77.291130 20.436655,79.152748 
	C20.306915,80.433449 20.224045,81.718887 20.317884,83.582947 
	C20.571810,83.902496 20.825733,84.222038 21.262575,85.152267 
	C23.456245,87.516853 25.649916,89.881432 28.373171,92.816864 
	C28.061758,92.863411 28.973358,92.955742 29.632292,92.591278 
	C33.655674,90.365906 36.773540,89.913101 37.567291,95.820221 
	C37.660351,96.512733 39.251106,97.004005 40.455616,97.710609 
	C40.455616,97.710609 40.754223,97.854256 41.428703,97.916229 
	C41.888973,97.519249 42.349243,97.122269 42.817455,96.841248 
	C42.817455,96.841248 42.717751,96.781525 43.441139,96.694878 
	C45.281910,97.114510 47.122677,97.534142 49.039486,97.962975 
	C49.039486,97.962975 49.046616,98.039246 49.109104,98.671005 
	C49.997181,98.682915 51.583977,98.929848 51.670643,98.672188 
	C53.590023,92.965935 57.480164,91.360275 63.745037,92.762955 
	C64.006744,90.225494 64.268448,87.688026 64.528015,85.171280 
	C70.590675,86.503662 70.327118,86.543053 69.343071,79.959557 
	C69.134514,78.564278 71.494507,76.637711 72.911522,75.191528 
	C74.136909,73.940926 75.703690,73.024834 77.545418,71.571503 
	C76.964226,71.124718 76.383041,70.677925 75.684204,70.363411 
	C75.684204,70.363411 75.510933,70.399658 75.704170,69.702698 
	C74.816154,68.706444 73.928139,67.710182 73.678215,66.454575 
	C75.434082,65.802872 77.189957,65.151169 78.945824,64.499466 
	C79.590630,64.045807 80.235435,63.592140 80.880241,63.138477 
	C70.548676,61.008617 68.692039,56.023438 74.356873,48.111015 
	C71.324684,48.567635 69.351028,49.440914 67.287155,49.944328 
	C66.720886,50.082455 65.884544,49.113380 65.347633,48.025997 
	C66.234123,46.247101 67.120621,44.468204 68.146263,42.410076 
	C64.294632,42.191940 55.762150,38.058769 53.302971,35.680206 
	C51.200302,37.428596 49.123592,39.155407 46.869663,40.182041 
	C45.962852,38.785816 45.056042,37.389587 44.149231,35.993362 
	C43.521793,36.451149 42.432617,36.829681 42.338333,37.378975 
	C41.394005,42.880611 37.447918,43.189449 32.979977,42.235600 
	C32.079880,41.397377 31.179781,40.559155 30.279686,39.720932 
	C30.451298,41.516861 30.622910,43.312786 30.898947,45.107983 
	C30.898947,45.107983 30.812187,45.166103 30.833002,45.874840 
	C30.531746,46.709644 30.230490,47.544449 29.495167,48.044518 
	C29.144976,47.952827 28.794786,47.861137 28.067070,47.335358 
	C27.706108,47.238930 27.345146,47.142502 26.982792,46.992367 
	C26.982792,46.992367 26.943508,47.029022 26.766207,46.672611 
M85.993927,61.500000 
	C85.993927,51.773632 85.993927,42.047260 85.993927,32.320892 
	C85.758606,32.327084 85.523285,32.333271 85.287964,32.339458 
	C85.287964,54.184750 85.287964,76.030037 85.287964,97.875328 
	C85.523277,97.876038 85.758598,97.876747 85.993912,97.877449 
	C85.993912,86.084969 85.993912,74.292480 85.993927,61.500000 
z"/>
<path fill="#0C8AF9" opacity="1.000000" stroke="none" 
	d="
M208.958206,78.079323 
	C208.792343,78.004601 208.626465,77.929878 208.225327,77.459084 
	C207.356400,76.990852 206.210022,76.737869 206.162567,76.872452 
	C203.779449,83.629585 201.490295,90.419861 199.190933,97.206535 
	C199.190933,97.206535 199.149719,97.057739 198.765182,97.094772 
	C188.293747,99.791336 185.548553,98.633202 180.784622,90.064804 
	C180.271149,89.141258 178.813522,88.742638 177.793854,88.100525 
	C177.526260,87.631447 177.258682,87.162376 176.995728,86.007324 
	C175.709229,81.777069 174.993408,77.869850 173.026520,74.751823 
	C164.871872,61.824558 162.680557,47.733517 164.129181,32.870060 
	C164.261658,31.510929 165.902710,29.285339 166.960693,29.214434 
	C170.550613,28.973831 174.258972,29.203360 177.781128,29.933390 
	C179.059433,30.198341 180.801132,32.342190 180.855545,33.688404 
	C181.096710,39.654961 180.462723,45.664024 180.828461,51.615726 
	C181.045334,55.144836 179.454483,59.682808 184.288361,61.785793 
	C184.288361,61.785793 184.210297,61.962440 184.160736,62.198689 
	C184.469757,62.932327 184.828339,63.429722 185.186935,63.927113 
	C185.186935,63.927113 185.094315,63.935303 185.065674,64.253517 
	C185.433685,65.350426 185.830353,66.129112 186.227020,66.907799 
	C186.227020,66.907799 186.114502,66.901344 186.090668,67.235390 
	C187.250366,72.595970 187.819641,73.404228 190.238449,73.492287 
	C191.297348,72.462440 192.356232,71.432594 194.040512,70.147667 
	C196.443878,64.336998 199.010910,58.889729 199.792358,53.197334 
	C200.690247,46.656750 200.064758,39.898441 199.984283,33.236115 
	C199.949051,30.318317 201.084503,28.784855 204.100891,29.028515 
	C208.312988,29.368761 212.520554,29.765062 216.991852,30.160534 
	C216.991852,38.613426 216.272461,46.348415 217.210983,53.876717 
	C218.015884,60.333130 220.396454,66.673767 222.709839,72.828949 
	C223.948914,76.125710 227.464691,76.214554 228.676147,73.318680 
	C232.546371,64.067307 237.681564,55.161362 236.087372,44.412918 
	C235.531219,40.663219 236.039703,36.762119 235.967484,32.931946 
	C235.915955,30.199461 237.241745,28.514898 239.853455,29.107512 
	C244.189423,30.091366 251.706253,25.841606 252.415314,31.762463 
	C253.521225,40.996937 255.214005,50.888138 250.106400,60.085201 
	C246.578857,66.437096 243.970779,73.304558 241.065613,79.991058 
	C240.693024,80.848602 241.006622,82.004295 241.002335,83.021866 
	C240.881836,83.490204 240.761353,83.958542 240.082489,84.727783 
	C238.395767,86.683418 236.928238,88.201805 236.198547,90.016823 
	C233.239456,97.377167 232.481949,97.561348 225.739609,98.155968 
	C219.627792,98.694984 217.056595,95.914886 215.671890,90.609184 
	C214.929169,87.763268 213.829086,84.962433 212.507614,82.333603 
	C211.699905,80.726791 210.165970,79.485031 208.958206,78.079323 
z"/>
<path fill="#0E8AF8" opacity="1.000000" stroke="none" 
	d="
M148.674927,78.323753 
	C151.583450,83.597412 154.504700,88.460693 156.951675,93.551926 
	C158.877304,97.558403 157.566818,99.409279 153.146561,99.858597 
	C152.650604,99.909004 152.147888,99.891861 151.648422,99.908913 
	C137.296021,100.398994 137.309952,100.391541 130.574875,87.902405 
	C128.208786,83.514877 125.904419,79.080521 123.249901,74.870560 
	C122.477760,73.645973 119.987938,72.099846 119.336311,72.483925 
	C117.776886,73.403084 115.898804,75.337975 115.823616,76.941330 
	C115.543480,82.915527 115.789619,88.929962 116.135910,94.912064 
	C116.338562,98.412743 114.935524,99.799942 111.583237,99.752533 
	C107.418694,99.693634 103.214066,100.065666 99.107231,99.576233 
	C97.579872,99.394211 95.065269,97.312691 95.056442,96.082626 
	C94.895302,73.619858 95.045647,51.154827 95.152519,28.690382 
	C95.153862,28.408403 95.450058,28.127827 95.801361,27.504803 
	C101.568642,27.504803 107.532875,27.342905 113.469467,27.675056 
	C114.385864,27.726330 115.893326,30.040764 115.901688,31.316605 
	C115.942055,37.471867 115.482094,43.628235 115.356827,49.787411 
	C115.246338,55.220032 116.955910,56.833988 121.893707,54.883709 
	C124.876663,53.705524 128.092697,51.279560 129.578003,48.534458 
	C132.564346,43.015160 134.316559,36.840458 136.856400,31.058489 
	C137.488449,29.619616 139.115707,27.713278 140.398895,27.622398 
	C145.815170,27.238792 151.274277,27.459990 158.055634,27.459990 
	C156.197998,33.311348 154.831848,38.189354 153.099930,42.933834 
	C150.566940,49.872799 147.217499,56.274475 141.269196,61.128784 
	C140.225189,61.980778 139.994278,65.238068 140.759506,66.630966 
	C142.957306,70.631508 145.858444,74.245667 148.674927,78.323753 
z"/>
<path fill="#0E8AF8" opacity="1.000000" stroke="none" 
	d="
M310.966675,62.197037 
	C310.651154,71.403511 310.652191,71.362816 301.862152,71.139175 
	C297.202789,71.020630 292.538971,71.082153 287.877350,71.042725 
	C285.470062,71.022362 282.949280,70.831413 283.164368,74.417473 
	C283.356262,77.616692 282.391602,81.723778 287.365021,82.000229 
	C292.999023,82.313408 298.662109,82.167252 304.311554,82.114540 
	C307.595642,82.083900 310.877777,81.844673 315.295990,81.649033 
	C314.409760,87.661911 313.766388,93.017639 312.685883,98.283676 
	C312.524994,99.067940 310.304443,99.920654 309.042053,99.912575 
	C295.060425,99.823090 281.079590,99.424797 267.099182,99.451065 
	C263.012756,99.458740 262.042297,97.938721 262.126953,94.178886 
	C262.516357,76.886230 262.711761,59.589008 262.923035,42.292767 
	C262.953461,39.801979 262.734863,37.304546 262.557281,34.815491 
	C262.020142,27.287645 262.005615,27.354366 269.324127,27.385824 
	C281.632568,27.438730 293.942902,27.504803 306.249237,27.334806 
	C310.060577,27.282160 312.302002,28.197920 312.407990,32.445072 
	C312.506134,36.379112 312.961700,40.304234 313.235229,43.908108 
	C304.882416,43.908108 297.133545,43.970943 289.386475,43.878944 
	C286.020782,43.838974 282.992157,43.622494 283.077087,48.500500 
	C283.154785,52.962769 284.906525,54.592125 289.442963,54.381721 
	C296.697418,54.045254 303.978851,54.291668 311.662170,54.291668 
	C311.436768,56.882542 311.225372,59.312366 310.966675,62.197037 
z"/>
<path fill="#0F8AF7" opacity="1.000000" stroke="none" 
	d="
M321.638000,39.536926 
	C324.038513,26.723524 324.038177,26.741079 336.533569,26.985544 
	C345.352539,27.158081 354.172943,27.258381 362.991913,27.430285 
	C364.793640,27.465405 366.591949,27.675932 368.473846,27.811510 
	C370.223450,35.272560 370.367065,41.705170 365.423370,48.300007 
	C358.360809,57.721409 352.464417,68.017982 346.095520,77.957191 
	C345.309418,79.184021 344.680176,80.511345 343.249481,83.121704 
	C352.772919,82.632515 361.252838,82.196922 370.907654,81.700981 
	C370.416260,87.691849 369.928345,93.639999 369.439819,99.595627 
	C358.339020,99.595627 347.890869,99.600113 337.442749,99.591705 
	C335.445496,99.590103 333.425446,99.717720 331.456360,99.467491 
	C328.328979,99.070068 322.823914,98.959366 322.547180,97.756226 
	C321.376282,92.665108 319.041321,87.252296 322.506805,81.898010 
	C329.374237,71.287758 336.043396,60.548901 342.756561,49.839409 
	C343.701294,48.332241 344.432495,46.691208 345.759277,44.167156 
	C338.346954,44.167156 331.829010,44.077118 325.315399,44.206001 
	C322.164734,44.268341 320.441986,43.468479 321.638000,39.536926 
z"/>
<path fill="#0F8AF8" opacity="1.000000" stroke="none" 
	d="
M379.404785,66.003433 
	C379.247528,54.526943 379.235840,43.545845 378.856750,32.577450 
	C378.713287,28.426878 379.921356,26.944376 384.203796,27.383797 
	C388.305939,27.804712 392.492706,27.534767 396.635376,27.381811 
	C399.637299,27.270973 400.674225,28.397402 400.628357,31.474382 
	C400.313751,52.578217 400.075653,73.684311 400.036011,94.790092 
	C400.028992,98.518570 398.751556,99.871521 395.172150,99.750504 
	C391.019165,99.610085 386.854950,99.623848 382.700867,99.747444 
	C379.208252,99.851379 378.085663,98.321754 378.270325,94.907944 
	C378.782013,85.447151 379.043671,75.972847 379.404785,66.003433 
z"/>
<path fill="#2288DE" opacity="1.000000" stroke="none" 
	d="
M241.261810,82.797089 
	C241.006622,82.004295 240.693024,80.848602 241.065613,79.991058 
	C243.970779,73.304558 246.578857,66.437096 250.106400,60.085201 
	C255.214005,50.888138 253.521225,40.996937 252.415314,31.762463 
	C251.706253,25.841606 244.189423,30.091366 239.853455,29.107512 
	C237.241745,28.514898 235.915955,30.199461 235.967484,32.931946 
	C236.039703,36.762119 235.531219,40.663219 236.087372,44.412918 
	C237.681564,55.161362 232.546371,64.067307 228.676147,73.318680 
	C227.464691,76.214554 223.948914,76.125710 222.709839,72.828949 
	C220.396454,66.673767 218.015884,60.333130 217.210983,53.876717 
	C216.272461,46.348415 216.991852,38.613426 216.991852,30.160534 
	C212.520554,29.765062 208.312988,29.368761 204.100891,29.028515 
	C201.084503,28.784855 199.949051,30.318317 199.984283,33.236115 
	C200.064758,39.898441 200.690247,46.656750 199.792358,53.197334 
	C199.010910,58.889729 196.443878,64.336998 194.304321,69.939125 
	C199.239716,56.681473 199.002258,42.727856 198.103134,27.990690 
	C204.496017,27.990690 210.245377,27.832323 215.969009,28.144981 
	C216.934525,28.197725 218.397110,30.200123 218.565613,31.445719 
	C218.894806,33.878952 218.633194,36.433418 218.333694,38.903439 
	C216.837708,51.240788 219.885666,62.624649 225.358856,73.744850 
	C236.601959,60.215714 234.644516,44.258396 233.737335,27.345261 
	C240.169754,27.345261 245.938950,27.101770 251.651978,27.559349 
	C252.739655,27.646463 254.271683,30.427095 254.468369,32.098038 
	C256.097321,45.936245 254.659393,59.211052 246.947739,71.350090 
	C244.734528,74.833931 243.308334,78.817741 241.261810,82.797089 
z"/>
<path fill="#EFEFEF" opacity="1.000000" stroke="none" 
	d="
M135.446198,115.988953 
	C137.242020,117.131233 139.037842,118.273514 140.255035,119.584991 
	C135.799484,120.223587 139.285675,122.447220 138.732346,123.669144 
	C137.379517,126.656662 136.641357,130.626297 134.300095,132.272308 
	C131.758835,134.058945 127.661896,134.978561 124.694687,131.121109 
	C122.051712,127.685150 121.477150,124.207184 123.496445,120.527359 
	C125.310036,117.222389 128.036102,115.470078 132.122437,116.723022 
	C133.066559,117.012520 134.329803,116.261276 135.446198,115.988953 
z"/>
<path fill="#4C4C4C" opacity="1.000000" stroke="none" 
	d="
M31.288990,132.719055 
	C31.288990,132.719055 30.935450,132.832687 30.418896,132.989380 
	C29.660078,133.411469 29.417810,133.676849 29.175541,133.942215 
	C29.662682,133.768921 30.149824,133.595612 30.636961,133.422302 
	C30.096283,134.117630 29.555609,134.812958 29.014936,135.508286 
	C28.485855,134.805862 27.532669,134.123016 27.499161,133.397705 
	C27.330252,129.741425 27.399019,126.074066 27.388649,122.410591 
	C27.383568,120.615860 27.387768,118.821106 27.387768,117.193977 
	C26.686979,116.924911 26.410400,116.716728 26.147146,116.732391 
	C17.090658,117.271416 17.090841,117.274452 17.090857,126.370621 
	C17.090862,129.404221 17.090858,132.437820 17.090858,135.471405 
	C16.518980,135.516739 15.947102,135.562073 15.375223,135.607407 
	C15.375223,129.529739 15.375223,123.452087 15.375223,117.370834 
	C11.409111,116.936813 8.626630,116.632317 5.844148,116.327820 
	C5.878796,115.822319 5.913444,115.316811 5.948092,114.811310 
	C18.714254,114.811310 31.480419,114.811310 44.246582,114.811310 
	C44.282829,115.412384 44.319080,116.013458 44.355328,116.614532 
	C41.634991,116.702477 38.915005,116.850677 36.194244,116.866615 
	C29.141954,116.907944 29.141819,116.884705 31.042088,124.286301 
	C33.141743,124.395424 35.375507,124.511520 37.609272,124.627617 
	C37.637070,124.831917 37.664867,125.036217 37.692669,125.240524 
	C35.415627,125.392868 33.138588,125.545212 30.469343,125.723801 
	C30.469343,127.986580 30.469343,130.064148 30.838028,132.439453 
	C31.206713,132.737183 31.288990,132.719055 31.288990,132.719055 
z"/>
<path fill="#F1F1F1" opacity="1.000000" stroke="none" 
	d="
M174.518097,113.936523 
	C174.723663,113.831604 174.940430,113.797134 175.023132,114.245407 
	C176.234665,115.491623 177.591492,116.325554 179.130096,117.452515 
	C183.597916,121.113487 183.315964,125.404808 181.460754,130.209412 
	C181.112442,131.322083 181.082260,132.175186 181.052078,133.028305 
	C181.052078,133.028305 181.012924,133.012985 180.769531,132.564209 
	C178.584091,132.418976 176.620087,133.060440 174.705887,132.936005 
	C172.566895,132.796967 169.632889,132.662292 168.506638,131.309113 
	C163.904877,125.780045 165.988754,119.138359 172.583374,116.409515 
	C173.425247,116.061150 173.882614,114.783607 174.518097,113.936523 
z"/>
<path fill="#4B4B4B" opacity="1.000000" stroke="none" 
	d="
M226.552170,128.015121 
	C226.583572,129.811783 226.583572,131.124420 226.583572,132.903824 
	C231.557068,132.903824 236.302322,132.903824 241.047562,132.903824 
	C241.091461,133.512711 241.135361,134.121613 241.179245,134.730499 
	C235.720474,136.808548 229.864716,135.150070 223.962982,135.707672 
	C223.962982,128.251511 223.962982,121.342552 223.962982,114.665970 
	C229.723648,114.665970 235.195862,114.665970 240.668060,114.665970 
	C240.694901,115.255417 240.721741,115.844864 240.748566,116.434311 
	C236.234207,116.657654 231.719864,116.881004 227.246826,117.102303 
	C226.069748,122.709084 226.916046,123.682640 233.144653,124.607201 
	C231.211700,125.460434 228.866241,126.495758 226.552170,128.015121 
z"/>
<path fill="#2787DD" opacity="1.000000" stroke="none" 
	d="
M184.292053,61.393593 
	C179.454483,59.682808 181.045334,55.144836 180.828461,51.615726 
	C180.462723,45.664024 181.096710,39.654961 180.855545,33.688404 
	C180.801132,32.342190 179.059433,30.198341 177.781128,29.933390 
	C174.258972,29.203360 170.550613,28.973831 166.960693,29.214434 
	C165.902710,29.285339 164.261658,31.510929 164.129181,32.870060 
	C162.680557,47.733517 164.871872,61.824558 173.026520,74.751823 
	C174.993408,77.869850 175.709229,81.777069 176.980957,85.725525 
	C172.195496,76.117905 165.932373,66.504242 163.130890,55.969997 
	C160.835907,47.340271 162.663361,37.614223 162.663361,28.009005 
	C169.455917,28.009005 175.705688,28.009005 181.883316,28.009005 
	C184.032501,39.147533 179.416031,50.414818 184.292053,61.393593 
z"/>
<path fill="#383838" opacity="1.000000" stroke="none" 
	d="
M206.091614,117.527214 
	C202.242126,117.729973 198.554474,116.781471 195.284317,117.568214 
	C190.571991,118.701942 190.831909,123.459000 191.482758,126.921417 
	C191.897781,129.129257 194.378632,131.929047 196.507263,132.576660 
	C198.952789,133.320694 202.120834,132.256775 204.788589,131.398560 
	C205.731812,131.095108 206.125992,129.085037 207.001282,127.414246 
	C204.469116,126.866821 202.611938,126.465324 200.754745,126.063828 
	C200.787491,125.538048 200.820221,125.012268 200.852966,124.486488 
	C203.408310,124.320000 205.963669,124.153503 208.700638,123.975182 
	C209.570099,128.533432 209.692795,132.293182 205.251465,134.616455 
	C200.845215,136.921417 196.516602,136.669250 192.597519,133.791687 
	C188.057892,130.458496 187.097397,122.629051 190.359390,118.051682 
	C193.377167,113.817024 200.507843,112.432007 205.164032,115.266846 
	C205.753326,115.625633 206.022491,116.510246 206.091614,117.527214 
z"/>
<path fill="#393939" opacity="1.000000" stroke="none" 
	d="
M72.930298,121.136246 
	C72.934723,118.539070 72.934723,116.420021 72.934723,114.300980 
	C73.564240,114.203934 74.193756,114.106895 74.823273,114.009857 
	C75.259880,116.677444 75.696487,119.345039 76.184952,122.329430 
	C79.901978,122.329430 83.661819,122.329430 87.743629,122.329430 
	C87.906532,119.716209 88.076614,116.987869 88.258667,114.067490 
	C91.673729,116.152359 92.016563,132.236923 88.363670,136.292419 
	C88.140068,132.292542 87.955254,128.986481 87.752815,125.365097 
	C83.841690,125.365097 79.973022,125.365097 76.131416,125.365097 
	C75.705727,128.826355 75.320778,132.035889 74.879051,135.237595 
	C74.862503,135.357483 74.293968,135.401215 72.925865,135.749359 
	C72.925865,130.876068 72.925865,126.245216 72.930298,121.136246 
z"/>
<path fill="#373737" opacity="1.000000" stroke="none" 
	d="
M65.995041,129.281662 
	C66.411354,130.306915 66.999603,131.808167 66.488052,132.529892 
	C64.138824,135.844254 58.562458,136.996979 54.244720,135.367950 
	C49.827984,133.701569 47.058430,129.307785 47.326984,124.393250 
	C47.588646,119.604767 51.088467,114.431870 55.130913,114.066780 
	C57.868065,113.819580 60.729836,114.952225 63.603542,116.303474 
	C57.274006,116.001236 51.388695,115.931877 50.286915,123.882698 
	C49.763748,127.658020 51.199905,130.874786 54.751568,132.548065 
	C59.166271,134.627960 62.775604,133.059067 65.995041,129.281662 
z"/>
<path fill="#282828" opacity="1.000000" stroke="none" 
	d="
M135.286377,115.603470 
	C134.329803,116.261276 133.066559,117.012520 132.122437,116.723022 
	C128.036102,115.470078 125.310036,117.222389 123.496445,120.527359 
	C121.477150,124.207184 122.051712,127.685150 124.694687,131.121109 
	C127.661896,134.978561 131.758835,134.058945 134.300095,132.272308 
	C136.641357,130.626297 137.379517,126.656662 138.732346,123.669144 
	C139.285675,122.447220 135.799484,120.223587 140.117935,119.862717 
	C142.086670,128.111267 139.902374,133.323425 134.092880,135.401703 
	C129.261536,137.130066 124.334717,135.589554 121.476387,131.456802 
	C118.963112,127.822968 119.153137,121.253548 121.868927,117.886589 
	C125.133499,113.839233 129.984711,112.862755 135.286377,115.603470 
z"/>
<path fill="#333333" opacity="1.000000" stroke="none" 
	d="
M323.968231,127.740921 
	C323.254578,128.810822 322.540924,129.880722 321.604279,131.284927 
	C318.962097,127.532013 316.565918,124.128471 314.169708,120.724937 
	C313.776245,120.833618 313.382751,120.942299 312.989258,121.050980 
	C312.989258,125.822990 312.989258,130.595001 312.989258,136.078323 
	C310.212372,133.171082 309.627838,120.413918 311.790222,112.727913 
	C315.138550,117.639252 317.887451,121.671326 320.964417,126.231781 
	C321.880066,126.529366 322.467590,126.298569 323.291931,126.174034 
	C323.675232,126.767174 323.821747,127.254044 323.968231,127.740921 
z"/>
<path fill="#414141" opacity="1.000000" stroke="none" 
	d="
M109.022034,129.943253 
	C106.262840,127.018799 103.503639,124.094345 100.244888,120.640419 
	C99.930367,126.185646 99.660896,130.936646 99.391426,135.687637 
	C98.778809,135.637604 98.166191,135.587585 97.553574,135.537552 
	C97.553574,128.604370 97.553574,121.671181 97.553574,113.621719 
	C102.526756,118.821114 107.133553,123.637451 112.261108,128.564590 
	C111.528595,129.098007 110.275322,129.520630 109.022034,129.943253 
z"/>
<path fill="#2288DE" opacity="1.000000" stroke="none" 
	d="
M208.960297,78.452400 
	C210.165970,79.485031 211.699905,80.726791 212.507614,82.333603 
	C213.829086,84.962433 214.929169,87.763268 215.671890,90.609184 
	C217.056595,95.914886 219.627792,98.694984 225.739609,98.155968 
	C232.481949,97.561348 233.239456,97.377167 236.198547,90.016823 
	C236.928238,88.201805 238.395767,86.683418 239.842407,85.003754 
	C238.419785,88.903732 236.916016,92.962372 234.816498,96.685013 
	C234.021637,98.094398 231.921844,99.445702 230.298843,99.602577 
	C217.663574,100.823875 217.151291,100.395767 212.773041,88.556992 
	C211.564896,85.290199 210.235931,82.068085 208.960297,78.452400 
z"/>
<path fill="#3D3D3D" opacity="1.000000" stroke="none" 
	d="
M262.308167,129.585556 
	C259.570312,125.024300 254.935623,125.325577 250.528091,124.894539 
	C247.154831,124.564644 244.000977,123.398140 244.268250,119.294922 
	C244.516754,115.479790 247.058655,114.431625 250.659988,115.337914 
	C251.553833,115.562851 252.627686,115.072594 253.860870,115.842621 
	C252.886978,116.063660 251.793076,116.076546 250.966568,116.553146 
	C249.633484,117.321869 248.476578,118.396111 247.245239,119.341309 
	C248.564178,120.326294 249.746292,121.739616 251.228638,122.213158 
	C255.132156,123.460182 260.237244,121.676628 262.503601,126.817795 
	C262.768646,127.419037 262.314301,128.337402 262.225525,129.370911 
	C262.257599,129.633057 262.308167,129.585556 262.308167,129.585556 
z"/>
<path fill="#434343" opacity="1.000000" stroke="none" 
	d="
M324.245178,127.570557 
	C323.821747,127.254044 323.675232,126.767174 323.231018,126.109871 
	C322.933319,125.939445 322.808960,125.813560 322.857513,125.703430 
	C322.906067,125.593307 323.061981,125.409943 323.061981,125.409943 
	C325.627014,121.443695 328.192047,117.477448 331.333588,112.619781 
	C333.695648,119.624268 333.261261,132.889023 330.434448,136.290695 
	C330.239777,133.156876 330.038971,130.872894 329.971832,128.584991 
	C329.900452,126.152390 329.955780,123.716057 329.044617,120.827911 
	C327.537109,123.018677 326.029633,125.209442 324.245178,127.570557 
z"/>
<path fill="#232323" opacity="1.000000" stroke="none" 
	d="
M174.106476,113.907677 
	C173.882614,114.783607 173.425247,116.061150 172.583374,116.409515 
	C165.988754,119.138359 163.904877,125.780045 168.506638,131.309113 
	C169.632889,132.662292 172.566895,132.796967 174.705887,132.936005 
	C176.620087,133.060440 178.584091,132.418976 180.777435,132.583679 
	C178.059601,136.578796 174.320618,136.629593 170.369019,135.286148 
	C165.416962,133.602585 163.884369,129.650864 163.653992,124.858490 
	C163.423584,120.065689 165.550064,116.733429 169.860931,114.819580 
	C171.044785,114.293999 172.411850,114.181107 174.106476,113.907677 
z"/>
<path fill="#262626" opacity="1.000000" stroke="none" 
	d="
M284.256134,117.132790 
	C284.256134,122.267929 284.256134,127.403061 284.256134,133.244995 
	C289.284546,133.244995 293.766144,133.244995 298.247742,133.244995 
	C298.266663,133.736374 298.285614,134.227768 298.304535,134.719147 
	C293.141815,134.719147 287.979065,134.719147 282.025269,134.719147 
	C282.025269,129.452423 282.025269,123.707298 282.349060,117.466156 
	C283.200592,117.024361 283.728363,117.078575 284.256134,117.132790 
z"/>
<path fill="#282828" opacity="1.000000" stroke="none" 
	d="
M301.695801,123.674911 
	C301.695648,120.213387 301.695648,117.188858 301.695648,114.164322 
	C302.419861,114.158165 303.144073,114.152016 303.868286,114.145859 
	C304.720642,121.195320 304.324493,128.288406 303.245880,135.454453 
	C300.953125,131.905441 302.057220,127.902260 301.695801,123.674911 
z"/>
<path fill="#343434" opacity="1.000000" stroke="none" 
	d="
M405.473419,128.260651 
	C404.508392,133.081467 401.089844,135.250565 396.651855,135.255127 
	C393.416351,135.258453 389.606049,137.405319 387.047302,133.183838 
	C387.618469,132.444931 388.035614,132.227844 388.731903,132.345016 
	C392.425262,132.349930 395.839508,132.020584 399.607513,131.674088 
	C400.409058,131.152771 400.856812,130.648590 401.540009,130.048584 
	C401.963593,129.500183 402.151703,129.047592 402.624573,128.419922 
	C403.764008,128.250122 404.618713,128.255386 405.473419,128.260651 
z"/>
<path fill="#404040" opacity="1.000000" stroke="none" 
	d="
M343.914612,116.605133 
	C343.221771,117.374283 341.968781,118.116348 341.930084,118.917122 
	C341.729279,123.069649 341.903534,127.238731 341.804291,131.398636 
	C341.769653,132.848923 341.326447,134.289459 341.069855,135.734436 
	C340.570526,135.699585 340.071228,135.664719 339.571899,135.629852 
	C339.571899,128.577408 339.571899,121.524948 339.571899,114.175591 
	C340.587067,114.257019 341.814667,114.355499 343.490723,114.656708 
	C343.930969,115.441330 343.922791,116.023232 343.914612,116.605133 
z"/>
<path fill="#393939" opacity="1.000000" stroke="none" 
	d="
M109.147560,130.253510 
	C110.275322,129.520630 111.528595,129.098007 112.647095,128.456512 
	C111.393822,119.616737 111.803352,116.188454 114.611618,113.983086 
	C114.611618,121.228348 114.611618,128.143005 114.611618,136.361298 
	C112.399582,133.959076 110.836327,132.261414 109.147560,130.253510 
z"/>
<path fill="#5B5B5B" opacity="1.000000" stroke="none" 
	d="
M366.585388,126.726967 
	C366.857697,128.490799 367.130005,130.254639 367.548218,132.963593 
	C372.176025,132.963593 377.094574,132.963593 382.013123,132.963593 
	C382.094910,133.534180 382.176666,134.104752 382.258453,134.675339 
	C381.253326,135.024994 380.260406,135.627319 379.240753,135.676636 
	C376.258209,135.820862 373.264954,135.754303 370.275909,135.752899 
	C363.353180,135.749649 362.855103,134.990021 365.615051,127.496750 
	C366.338531,127.054504 366.461945,126.890739 366.585388,126.726967 
z"/>
<path fill="#3C3C3C" opacity="1.000000" stroke="none" 
	d="
M262.283600,129.650040 
	C260.298279,131.762436 258.590973,135.105530 256.210419,135.685577 
	C251.681229,136.789139 246.866974,136.032623 243.680038,131.145721 
	C250.024719,132.599274 256.376312,135.745453 262.300781,130.068573 
	C262.308167,129.585556 262.257599,129.633057 262.283600,129.650040 
z"/>
<path fill="#3C3C3C" opacity="1.000000" stroke="none" 
	d="
M388.452759,132.010773 
	C388.035614,132.227844 387.618469,132.444931 387.080994,132.870605 
	C386.679443,127.129547 386.347839,121.180771 386.245789,115.228058 
	C386.239807,114.881325 388.093353,114.502693 389.497314,114.485115 
	C389.914124,115.457184 389.915192,116.083038 389.531067,116.949715 
	C389.092957,121.460487 389.040039,125.730438 388.909485,130.250244 
	C388.883820,130.666611 388.935822,130.833115 388.843079,131.246613 
	C388.616486,131.666000 388.534607,131.838394 388.452759,132.010773 
z"/>
<path fill="#404040" opacity="1.000000" stroke="none" 
	d="
M146.327530,133.022278 
	C146.273804,126.708008 145.255844,120.318176 146.914780,114.138107 
	C147.611877,114.139076 148.308960,114.140053 149.006058,114.141022 
	C149.006058,120.107033 149.006058,126.073036 148.696228,132.497772 
	C147.700119,132.978424 147.013824,133.000351 146.327530,133.022278 
z"/>
<path fill="#2183DE" opacity="1.000000" stroke="none" 
	d="
M177.838074,88.461952 
	C178.813522,88.742638 180.271149,89.141258 180.784622,90.064804 
	C185.548553,98.633202 188.293747,99.791336 198.815720,97.153122 
	C198.388031,97.950447 197.590820,99.293144 196.650909,99.401840 
	C193.067657,99.816231 189.358032,100.341644 185.859283,99.789124 
	C184.033875,99.500862 182.222488,97.280487 180.997696,95.520241 
	C179.612396,93.529289 178.891891,91.075752 177.838074,88.461952 
z"/>
<path fill="#F7F7F7" opacity="1.000000" stroke="none" 
	d="
M405.828003,128.038651 
	C404.618713,128.255386 403.764008,128.250122 402.473816,128.131516 
	C401.638733,127.533257 401.239197,127.048325 400.827271,126.548370 
	C401.793732,126.092606 402.710602,125.660217 403.693756,125.196579 
	C401.991425,122.423302 400.499084,119.992088 399.424072,117.428009 
	C400.414978,117.204231 400.988495,117.113319 401.562012,117.022400 
	C406.118835,118.525337 407.758270,122.355309 405.828003,128.038651 
z"/>
<path fill="#303030" opacity="1.000000" stroke="none" 
	d="
M181.778870,129.949844 
	C183.315964,125.404808 183.597916,121.113487 179.149002,117.074921 
	C179.003326,115.900513 179.020538,115.396721 179.037750,114.892937 
	C185.797867,118.363251 187.390839,123.693199 183.418945,130.998672 
	C182.564713,130.584488 182.171783,130.267166 181.778870,129.949844 
z"/>
<path fill="#656565" opacity="1.000000" stroke="none" 
	d="
M344.317627,116.742813 
	C343.922791,116.023232 343.930969,115.441330 343.937225,114.567787 
	C349.656616,114.199455 355.377930,114.122772 361.553528,114.442543 
	C362.005798,115.223892 362.003784,115.608795 362.001770,115.993698 
	C359.591431,116.517982 357.181061,117.042259 354.088867,117.753143 
	C352.874725,117.970520 352.342499,118.001297 351.810242,118.032074 
	C349.447052,117.648216 347.083832,117.264359 344.317627,116.742813 
z"/>
<path fill="#252525" opacity="1.000000" stroke="none" 
	d="
M214.732117,125.954689 
	C214.722733,121.716805 214.722733,117.961937 214.722733,114.207062 
	C215.355240,114.218155 215.987762,114.229240 216.620270,114.240334 
	C216.620270,121.270340 216.620270,128.300354 216.620270,135.330353 
	C216.030228,135.370712 215.440201,135.411072 214.850159,135.451431 
	C214.813950,132.446854 214.777725,129.442276 214.732117,125.954689 
z"/>
<path fill="#2183DE" opacity="1.000000" stroke="none" 
	d="
M199.513596,97.055069 
	C201.490295,90.419861 203.779449,83.629585 206.162567,76.872452 
	C206.210022,76.737869 207.356400,76.990852 207.971985,77.357597 
	C205.248016,84.069321 202.542145,90.486465 199.513596,97.055069 
z"/>
<path fill="#121212" opacity="1.000000" stroke="none" 
	d="
M366.135559,114.361893 
	C370.402344,114.328400 374.669128,114.294907 379.461212,114.652550 
	C380.161438,115.492004 380.336334,115.940323 380.511261,116.388641 
	C376.017639,116.575905 371.524048,116.763161 366.553284,117.010788 
	C366.076172,117.071152 366.024811,117.020645 365.912903,116.696045 
	C365.912506,115.701599 366.024048,115.031746 366.135559,114.361893 
z"/>
<path fill="#282828" opacity="1.000000" stroke="none" 
	d="
M351.767426,118.496307 
	C352.342499,118.001297 352.874725,117.970520 353.804688,117.987167 
	C354.202423,123.843140 354.202423,129.651703 354.202423,135.460266 
	C353.454254,135.480011 352.706085,135.499756 351.957916,135.519501 
	C351.880157,129.999847 351.802399,124.480202 351.767426,118.496307 
z"/>
<path fill="#313131" opacity="1.000000" stroke="none" 
	d="
M146.265900,133.460358 
	C147.013824,133.000351 147.700119,132.978424 148.729736,132.963165 
	C153.573257,132.969849 158.073425,132.969849 162.573608,132.969849 
	C162.639313,133.351990 162.705017,133.734131 162.770721,134.116272 
	C162.224655,134.556183 161.644669,135.412720 161.137756,135.371460 
	C156.152969,134.965851 151.180344,134.410965 146.265900,133.460358 
z"/>
<path fill="#737373" opacity="1.000000" stroke="none" 
	d="
M401.338531,116.682640 
	C400.988495,117.113319 400.414978,117.204231 398.973206,117.346336 
	C395.375366,117.167976 392.645813,116.938438 389.916260,116.708900 
	C389.915192,116.083038 389.914124,115.457184 389.917511,114.518005 
	C393.652985,114.917412 397.384003,115.630142 401.338531,116.682640 
z"/>
<path fill="#2F2F2F" opacity="1.000000" stroke="none" 
	d="
M44.096783,135.280746 
	C40.382599,135.355011 36.661514,135.576477 32.958946,135.402939 
	C31.999542,135.357986 31.098104,134.076263 30.729515,133.040833 
	C31.288990,132.719055 31.206713,132.737183 31.202591,132.773621 
	C35.151974,132.878220 39.105484,132.946381 43.541420,133.443542 
	C44.048157,134.341949 44.072472,134.811356 44.096783,135.280746 
z"/>
<path fill="#2787DD" opacity="1.000000" stroke="none" 
	d="
M190.206116,73.157730 
	C187.819641,73.404228 187.250366,72.595970 186.115555,67.184830 
	C187.500778,68.807877 188.837280,70.815521 190.206116,73.157730 
z"/>
<path fill="#121212" opacity="1.000000" stroke="none" 
	d="
M366.102661,117.095581 
	C366.536804,119.277855 367.123962,121.423843 367.267517,123.599113 
	C367.328613,124.524757 366.461395,125.511665 366.016022,126.470726 
	C365.534607,126.324623 365.053192,126.178520 364.571777,126.032417 
	C364.571777,123.315239 364.571777,120.598053 364.970276,117.411079 
	C365.587433,116.967735 365.806122,116.994194 366.024811,117.020645 
	C366.024811,117.020645 366.076172,117.071152 366.102661,117.095581 
z"/>
<path fill="#5B5B5B" opacity="1.000000" stroke="none" 
	d="
M365.912903,116.696045 
	C365.806122,116.994194 365.587433,116.967735 365.043274,116.998253 
	C363.974365,116.813591 363.230957,116.571960 362.244659,116.162018 
	C362.003784,115.608795 362.005798,115.223892 362.011353,114.550262 
	C363.112518,114.250145 364.210144,114.238754 365.721680,114.294624 
	C366.024048,115.031746 365.912506,115.701599 365.912903,116.696045 
z"/>
<path fill="#525252" opacity="1.000000" stroke="none" 
	d="
M284.438477,116.795364 
	C283.728363,117.078575 283.200592,117.024361 282.408691,117.004501 
	C282.415131,116.057304 282.685760,115.075760 282.956390,114.094223 
	C283.511200,114.882133 284.066010,115.670036 284.438477,116.795364 
z"/>
<path fill="#232323" opacity="1.000000" stroke="none" 
	d="
M178.737595,114.666435 
	C179.020538,115.396721 179.003326,115.900513 178.967209,116.781891 
	C177.591492,116.325554 176.234665,115.491623 175.181793,114.296600 
	C176.469635,114.103645 177.453537,114.271790 178.737595,114.666435 
z"/>
<path fill="#232323" opacity="1.000000" stroke="none" 
	d="
M181.460754,130.209412 
	C182.171783,130.267166 182.564713,130.584488 183.137970,131.242340 
	C182.724152,132.230225 182.129990,132.877579 181.293945,133.276611 
	C181.082260,132.175186 181.112442,131.322083 181.460754,130.209412 
z"/>
<path fill="#4C4C4C" opacity="1.000000" stroke="none" 
	d="
M44.366428,135.267578 
	C44.072472,134.811356 44.048157,134.341949 43.996998,133.521118 
	C44.192127,133.864594 44.414101,134.559494 44.366428,135.267578 
z"/>
<path fill="#2787DD" opacity="1.000000" stroke="none" 
	d="
M186.241104,66.553040 
	C185.830353,66.129112 185.433685,65.350426 185.084076,64.210823 
	C185.505798,64.632698 185.880493,65.415489 186.241104,66.553040 
z"/>
<path fill="#2F2F2F" opacity="1.000000" stroke="none" 
	d="
M30.666145,133.379608 
	C30.149824,133.595612 29.662682,133.768921 29.175541,133.942215 
	C29.417810,133.676849 29.660078,133.411469 30.275909,133.107849 
	C30.649473,133.069595 30.695326,133.336914 30.666145,133.379608 
z"/>
<path fill="#676767" opacity="1.000000" stroke="none" 
	d="
M380.799408,116.198883 
	C380.336334,115.940323 380.161438,115.492004 379.913269,114.690086 
	C380.255890,114.894035 380.671722,115.451584 380.799408,116.198883 
z"/>
<path fill="#434343" opacity="1.000000" stroke="none" 
	d="
M322.994232,126.003609 
	C322.467590,126.298569 321.880066,126.529366 321.125580,126.552345 
	C321.220306,126.355949 321.481964,126.367378 322.179962,126.143494 
	C322.616302,125.908173 322.808960,125.813560 322.808960,125.813560 
	C322.808960,125.813560 322.933319,125.939445 322.994232,126.003609 
z"/>
<path fill="#2787DD" opacity="1.000000" stroke="none" 
	d="
M185.198639,63.602737 
	C184.828339,63.429722 184.469757,62.932327 184.173584,62.102985 
	C184.560776,62.273476 184.885559,62.775917 185.198639,63.602737 
z"/>
<path fill="#383838" opacity="1.000000" stroke="none" 
	d="
M207.927551,117.936623 
	C207.692947,118.792717 207.088089,119.189636 206.430679,119.457664 
	C206.363174,119.485184 205.981461,118.742004 205.745529,118.356445 
	C206.344452,118.051201 206.943375,117.745964 207.927551,117.936623 
z"/>
<path fill="#121212" opacity="1.000000" stroke="none" 
	d="
M365.955505,127.383263 
	C365.363647,127.116287 365.031403,126.684311 364.699158,126.252335 
	C365.249023,126.094376 365.798920,125.936424 366.467102,126.252716 
	C366.461945,126.890739 366.338531,127.054504 365.955505,127.383263 
z"/>
<path fill="#333333" opacity="1.000000" stroke="none" 
	d="
M322.857513,125.703430 
	C322.808960,125.813560 322.616302,125.908173 322.537811,125.981369 
	C322.493622,125.837555 322.600433,125.665619 322.920898,125.474350 
	C323.061981,125.409943 322.906067,125.593307 322.857513,125.703430 
z"/>
<path fill="#212619" opacity="1.000000" stroke="none" 
	d="
M73.040123,66.713928 
	C73.928139,67.710182 74.816154,68.706444 75.283745,69.935303 
	C70.773888,66.615608 69.025688,72.391693 65.786705,72.737198 
	C65.113014,72.809052 64.899948,77.199234 64.728462,78.166832 
	C62.504513,80.705872 61.033596,82.385193 59.313854,84.348595 
	C56.079502,83.637405 52.216652,82.852890 50.489246,87.818123 
	C49.773544,87.499901 49.057846,87.181671 48.242264,86.569305 
	C47.108086,86.521103 46.073792,86.767044 45.013588,87.011414 
	C44.987682,87.009842 45.007034,87.058006 44.809242,87.156204 
	C44.361740,87.439987 44.213840,87.686638 43.838806,87.953232 
	C42.754677,86.883392 41.999485,85.854668 41.234619,84.844116 
	C41.224937,84.862289 41.195286,84.860924 41.193993,84.633408 
	C41.192703,84.405884 40.987904,83.997368 40.961166,83.623611 
	C39.359692,83.012428 37.784958,82.775009 36.050335,82.162750 
	C35.443302,80.106018 34.996151,78.424126 34.674953,77.215981 
	C32.973904,76.403198 31.551607,75.723602 30.150368,74.666382 
	C30.313848,73.546356 30.456272,72.803947 30.854340,71.941994 
	C30.346643,69.779007 29.583302,67.735573 29.015430,65.497398 
	C29.107992,64.595291 29.005081,63.887920 28.915926,62.770172 
	C28.926195,61.539505 28.922707,60.719219 28.952862,59.949516 
	C28.986504,60.000103 28.899313,59.915264 29.280376,59.921101 
	C31.068613,58.077999 32.475788,56.229057 33.882965,54.380119 
	C33.613850,54.218521 33.344734,54.056927 33.075619,53.895332 
	C35.745449,52.105030 38.415279,50.314732 41.382725,48.418133 
	C42.334164,47.800087 42.987991,47.288338 44.071014,46.827129 
	C47.721756,46.887394 50.943298,46.897121 54.343552,47.233112 
	C55.751884,48.029549 57.374809,49.242718 58.140907,48.837193 
	C60.978603,47.335121 62.507420,48.892105 64.150269,51.040318 
	C65.045250,52.219727 65.928574,53.021828 67.101128,54.086563 
	C64.560844,57.414337 63.969025,60.501545 69.022446,62.259575 
	C69.584000,62.454933 69.546951,64.008324 70.121742,64.615501 
	C70.930717,65.470062 72.052246,66.028732 73.040123,66.713928 
M52.800922,62.234131 
	C52.800922,62.234131 52.696262,62.258034 52.835278,61.502861 
	C50.711426,60.580055 48.591301,58.914352 46.462872,58.903671 
	C43.029320,58.886440 40.277401,61.211243 40.396046,64.769676 
	C40.478523,67.243370 41.555363,70.480835 43.353420,71.890137 
	C45.405281,73.498360 49.049809,75.060883 51.077118,70.316666 
	C51.257282,70.104065 51.484386,69.972496 52.508503,69.885185 
	C55.937077,67.403267 55.927814,64.827751 52.800922,62.234131 
z"/>
<path fill="#8BCD27" opacity="1.000000" stroke="none" 
	d="
M48.342148,86.863441 
	C49.057846,87.181671 49.773544,87.499901 50.489246,87.818123 
	C52.216652,82.852890 56.079502,83.637405 59.313854,84.348595 
	C61.033596,82.385193 62.504513,80.705872 64.728462,78.166832 
	C64.899948,77.199234 65.113014,72.809052 65.786705,72.737198 
	C69.025688,72.391693 70.773888,66.615608 75.187126,70.283783 
	C75.510933,70.399658 75.684204,70.363411 75.775017,70.582535 
	C76.283737,71.188072 76.701653,71.574478 77.119568,71.960884 
	C75.703690,73.024834 74.136909,73.940926 72.911522,75.191528 
	C71.494507,76.637711 69.134514,78.564278 69.343071,79.959557 
	C70.327118,86.543053 70.590675,86.503662 64.528015,85.171280 
	C64.268448,87.688026 64.006744,90.225494 63.142349,92.593735 
	C55.317078,88.694450 55.281216,88.737762 51.456123,95.957260 
	C50.992977,96.831406 49.865952,97.353813 49.046616,98.039246 
	C49.046616,98.039246 49.039486,97.962975 48.911812,97.654160 
	C48.462437,96.346893 48.140732,95.348442 47.959206,94.078918 
	C48.474377,93.367607 48.849377,92.927368 49.479637,92.187462 
	C48.476196,92.111183 47.756474,92.056480 46.858017,91.792465 
	C45.903725,91.762367 45.128162,91.941582 44.042889,91.934120 
	C42.970825,89.416092 38.809383,88.306992 41.244297,84.825943 
	C41.999485,85.854668 42.754677,86.883392 44.019272,87.838249 
	C44.751972,87.572174 44.911427,87.336723 45.007034,87.058006 
	C45.007034,87.058006 44.987682,87.009842 45.425911,87.005928 
	C46.690144,86.955826 47.516144,86.909630 48.342148,86.863441 
z"/>
<path fill="#8ACF1D" opacity="1.000000" stroke="none" 
	d="
M30.598698,72.061546 
	C30.456272,72.803947 30.313848,73.546356 29.897434,74.866852 
	C29.228815,76.457298 28.834187,77.469666 28.385857,78.619789 
	C30.054146,78.784271 31.414434,78.918388 32.896023,79.064461 
	C32.977932,80.819077 33.045971,82.276512 33.078423,84.099136 
	C32.361053,85.639702 31.679279,86.815071 30.629864,87.994873 
	C29.527063,88.002327 28.791904,88.005348 28.030224,87.631744 
	C28.276339,85.713936 28.548975,84.172760 28.900764,82.184143 
	C25.701626,83.148430 23.390642,83.845009 21.079659,84.541595 
	C20.825733,84.222038 20.571810,83.902496 20.478172,83.101242 
	C21.467487,81.072357 22.296513,79.525192 23.357990,77.766457 
	C23.491385,76.398300 23.392328,75.241714 23.077934,73.823654 
	C22.246712,73.322136 21.630829,73.082092 21.014946,72.842049 
	C21.014946,72.842049 20.797148,72.693359 20.552994,72.503601 
	C20.125854,72.028748 19.942869,71.743652 19.693451,71.134132 
	C19.829554,69.856697 19.887053,68.838348 20.278107,67.970276 
	C20.623501,67.203560 21.340803,66.604393 21.893898,65.931252 
	C21.893898,65.931252 21.917583,65.992157 22.277573,65.991714 
	C23.115961,66.001198 23.594364,66.011131 24.185551,66.249107 
	C24.588913,66.645821 24.879490,66.814499 25.171589,67.329117 
	C26.981642,69.137222 28.790171,70.599380 30.598698,72.061546 
z"/>
<path fill="#86C426" opacity="1.000000" stroke="none" 
	d="
M64.138603,50.663010 
	C62.507420,48.892105 60.978603,47.335121 58.140907,48.837193 
	C57.374809,49.242718 55.751884,48.029549 54.322861,46.851364 
	C53.172272,45.493816 52.289192,44.689724 51.252998,44.233067 
	C49.894321,43.634289 48.414864,43.309574 46.984993,42.536079 
	C47.004047,41.764194 47.025463,41.323204 47.046883,40.882217 
	C49.123592,39.155407 51.200302,37.428596 53.302971,35.680206 
	C55.762150,38.058769 64.294632,42.191940 68.146263,42.410076 
	C67.120621,44.468204 66.234123,46.247101 65.150833,48.610359 
	C64.682220,49.684155 64.410408,50.173580 64.138603,50.663010 
z"/>
<path fill="#84C026" opacity="1.000000" stroke="none" 
	d="
M64.150269,51.040318 
	C64.410408,50.173580 64.682220,49.684155 65.063080,48.923553 
	C65.884544,49.113380 66.720886,50.082455 67.287155,49.944328 
	C69.351028,49.440914 71.324684,48.567635 74.356873,48.111015 
	C68.692039,56.023438 70.548676,61.008617 80.880241,63.138477 
	C80.235435,63.592140 79.590630,64.045807 78.945824,64.499466 
	C77.189957,65.151169 75.434082,65.802872 73.359169,66.584251 
	C72.052246,66.028732 70.930717,65.470062 70.121742,64.615501 
	C69.546951,64.008324 69.584000,62.454933 69.022446,62.259575 
	C63.969025,60.501545 64.560844,57.414337 67.101128,54.086563 
	C65.928574,53.021828 65.045250,52.219727 64.150269,51.040318 
z"/>
<path fill="#90D229" opacity="1.000000" stroke="none" 
	d="
M46.958275,40.532127 
	C47.025463,41.323204 47.004047,41.764194 46.632477,42.614075 
	C45.402157,44.274174 44.521988,45.525383 43.641815,46.776592 
	C42.987991,47.288338 42.334164,47.800087 41.059261,48.226990 
	C38.642223,47.489666 36.846268,46.837189 34.820290,45.879982 
	C33.330910,45.438877 32.071548,45.302490 30.812187,45.166103 
	C30.812187,45.166103 30.898947,45.107983 31.027639,44.835434 
	C31.807308,44.014896 32.458286,43.466911 33.109264,42.918922 
	C37.447918,43.189449 41.394005,42.880611 42.338333,37.378975 
	C42.432617,36.829681 43.521793,36.451149 44.149231,35.993362 
	C45.056042,37.389587 45.962852,38.785816 46.958275,40.532127 
z"/>
<path fill="#233B09" opacity="1.000000" stroke="none" 
	d="
M21.171116,84.846931 
	C23.390642,83.845009 25.701626,83.148430 28.900764,82.184143 
	C28.548975,84.172760 28.276339,85.713936 27.981461,88.001808 
	C29.633524,88.811417 31.307833,88.874336 33.378922,88.986435 
	C34.840172,89.047867 35.904633,89.060112 37.124466,89.391998 
	C38.235737,92.337296 39.191643,94.962929 40.147552,97.588562 
	C39.251106,97.004005 37.660351,96.512733 37.567291,95.820221 
	C36.773540,89.913101 33.655674,90.365906 29.632292,92.591278 
	C28.973358,92.955742 28.061758,92.863411 28.373171,92.816864 
	C25.649916,89.881432 23.456245,87.516853 21.171116,84.846931 
z"/>
<path fill="#7FC01D" opacity="1.000000" stroke="none" 
	d="
M24.072765,66.021065 
	C23.594364,66.011131 23.115961,66.001198 22.279770,65.959778 
	C20.056566,63.981449 18.191154,62.034611 16.030252,59.779388 
	C18.904026,58.299919 21.685804,56.867813 24.786285,55.525429 
	C26.381657,55.743019 27.658323,55.870884 28.952908,56.390877 
	C28.946985,57.827091 28.923149,58.871178 28.899313,59.915264 
	C28.899313,59.915264 28.986504,60.000103 28.630821,59.921310 
	C27.227804,60.451427 26.180470,61.060341 25.187958,61.949223 
	C25.527573,62.463497 25.812361,62.697800 26.114365,62.868095 
	C26.131578,62.804089 26.255121,62.756012 26.180065,63.178856 
	C26.073931,64.463081 26.042854,65.324463 25.903740,66.247162 
	C25.795700,66.308487 25.566158,66.213402 25.194281,66.153900 
	C24.572523,66.069946 24.322645,66.045502 24.072765,66.021065 
z"/>
<path fill="#17161A" opacity="1.000000" stroke="none" 
	d="
M85.993919,62.000000 
	C85.993912,74.292480 85.993912,86.084969 85.993912,97.877449 
	C85.758598,97.876747 85.523277,97.876038 85.287964,97.875328 
	C85.287964,76.030037 85.287964,54.184750 85.287964,32.339458 
	C85.523285,32.333271 85.758606,32.327084 85.993927,32.320892 
	C85.993927,42.047260 85.993927,51.773632 85.993919,62.000000 
z"/>
<path fill="#8CCC27" opacity="1.000000" stroke="none" 
	d="
M40.301582,97.649590 
	C39.191643,94.962929 38.235737,92.337296 37.135956,88.983521 
	C36.596161,84.898781 38.960487,84.960045 41.195286,84.860924 
	C41.195286,84.860924 41.224937,84.862289 41.234619,84.844116 
	C38.809383,88.306992 42.970825,89.416092 43.974411,92.287979 
	C43.716351,94.146172 43.217052,95.463852 42.717751,96.781525 
	C42.717751,96.781525 42.817455,96.841248 42.506737,96.798317 
	C41.715420,97.121681 41.234821,97.487968 40.754223,97.854256 
	C40.754223,97.854256 40.455616,97.710609 40.301582,97.649590 
z"/>
<path fill="#8FCE30" opacity="1.000000" stroke="none" 
	d="
M28.934994,55.998749 
	C27.658323,55.870884 26.381657,55.743019 25.047216,55.284813 
	C24.185928,52.143711 23.382412,49.332958 22.477478,46.167439 
	C23.508593,46.167439 24.429306,46.167439 25.810949,46.466305 
	C26.466669,46.927097 26.690544,47.015049 26.943508,47.029022 
	C26.943508,47.029022 26.982792,46.992367 27.159790,47.250046 
	C27.706057,47.594963 28.075325,47.682205 28.444595,47.769444 
	C28.794786,47.861137 29.144976,47.952827 29.725513,48.498863 
	C29.954977,49.532127 29.954094,50.111053 29.675413,50.893356 
	C29.243408,52.730740 29.089201,54.364742 28.934994,55.998749 
z"/>
<path fill="#233B09" opacity="1.000000" stroke="none" 
	d="
M49.077858,98.355125 
	C49.865952,97.353813 50.992977,96.831406 51.456123,95.957260 
	C55.281216,88.737762 55.317078,88.694450 62.782341,92.673706 
	C57.480164,91.360275 53.590023,92.965935 51.670643,98.672188 
	C51.583977,98.929848 49.997181,98.682915 49.077858,98.355125 
z"/>
<path fill="#7DB529" opacity="1.000000" stroke="none" 
	d="
M29.953211,50.689976 
	C29.954094,50.111053 29.954977,49.532127 29.942547,48.666229 
	C30.230490,47.544449 30.531746,46.709644 30.822594,45.520470 
	C32.071548,45.302490 33.330910,45.438877 34.803467,46.275360 
	C35.016659,48.473560 35.016659,49.971661 35.016659,51.682140 
	C32.798092,51.247421 31.375652,50.968700 29.953211,50.689976 
z"/>
<path fill="#233B09" opacity="1.000000" stroke="none" 
	d="
M43.079445,96.738205 
	C43.217052,95.463852 43.716351,94.146172 44.284126,92.474640 
	C45.128162,91.941582 45.903725,91.762367 46.848679,92.115128 
	C47.285061,93.214737 47.552044,93.782364 47.819031,94.349998 
	C48.140732,95.348442 48.462437,96.346893 48.873791,97.649551 
	C47.122677,97.534142 45.281910,97.114510 43.079445,96.738205 
z"/>
<path fill="#233B09" opacity="1.000000" stroke="none" 
	d="
M21.035278,73.207657 
	C21.630829,73.082092 22.246712,73.322136 23.001240,74.206131 
	C23.135101,75.892731 23.130320,76.935379 23.125538,77.978020 
	C22.296513,79.525192 21.467487,81.072357 20.379343,82.810867 
	C20.224045,81.718887 20.306915,80.433449 20.436655,79.152748 
	C20.625248,77.291130 20.847633,75.432930 21.035278,73.207657 
z"/>
<path fill="#7DB529" opacity="1.000000" stroke="none" 
	d="
M33.044621,42.577263 
	C32.458286,43.466911 31.807308,44.014896 30.975426,44.835800 
	C30.622910,43.312786 30.451298,41.516861 30.279686,39.720932 
	C31.179781,40.559155 32.079880,41.397377 33.044621,42.577263 
z"/>
<path fill="#85BB30" opacity="1.000000" stroke="none" 
	d="
M21.534885,65.925156 
	C21.340803,66.604393 20.623501,67.203560 20.278107,67.970276 
	C19.887053,68.838348 19.829554,69.856697 19.354416,71.056458 
	C18.403206,71.144440 17.724600,70.985657 17.045994,70.826866 
	C14.697239,66.056046 19.241325,67.085510 21.534885,65.925156 
z"/>
<path fill="#233B09" opacity="1.000000" stroke="none" 
	d="
M17.172916,71.176178 
	C17.724600,70.985657 18.403206,71.144440 19.420849,71.380890 
	C19.942869,71.743652 20.125854,72.028748 20.426495,72.540794 
	C19.462709,72.353668 18.381273,71.939583 17.172916,71.176178 
z"/>
<path fill="#212619" opacity="1.000000" stroke="none" 
	d="
M77.332489,71.766190 
	C76.701653,71.574478 76.283737,71.188072 75.833839,70.516403 
	C76.383041,70.677925 76.964226,71.124718 77.332489,71.766190 
z"/>
<path fill="#233B09" opacity="1.000000" stroke="none" 
	d="
M41.091461,97.885239 
	C41.234821,97.487968 41.715420,97.121681 42.502762,96.740341 
	C42.349243,97.122269 41.888973,97.519249 41.091461,97.885239 
z"/>
<path fill="#7DB529" opacity="1.000000" stroke="none" 
	d="
M28.255833,47.552399 
	C28.075325,47.682205 27.706057,47.594963 27.160484,47.276901 
	C27.345146,47.142502 27.706108,47.238930 28.255833,47.552399 
z"/>
<path fill="#7DB529" opacity="1.000000" stroke="none" 
	d="
M26.854858,46.850815 
	C26.690544,47.015049 26.466669,46.927097 26.153458,46.627998 
	C26.318233,46.392632 26.561958,46.453228 26.854858,46.850815 
z"/>
<path fill="#FBFDFD" opacity="1.000000" stroke="none" 
	d="
M389.531067,116.949715 
	C392.645813,116.938438 395.375366,117.167976 398.555817,117.479202 
	C400.499084,119.992088 401.991425,122.423302 403.693756,125.196579 
	C402.710602,125.660217 401.793732,126.092606 400.827271,126.548370 
	C401.239197,127.048325 401.638733,127.533257 402.189056,128.306610 
	C402.151703,129.047592 401.963593,129.500183 401.229187,129.933167 
	C400.206512,130.506119 399.730133,131.098679 399.253723,131.691223 
	C395.839508,132.020584 392.425262,132.349930 388.731903,132.345032 
	C388.534607,131.838394 388.616486,131.666000 389.272369,131.247375 
	C391.859283,131.001144 393.872223,131.001144 395.885193,131.001144 
	C395.880951,130.667557 395.876740,130.333984 395.872528,130.000397 
	C393.577423,130.000397 391.282288,130.000397 388.987122,130.000397 
	C389.040039,125.730438 389.092957,121.460487 389.531067,116.949715 
z"/>
<path fill="#F7F7F7" opacity="1.000000" stroke="none" 
	d="
M399.607513,131.674072 
	C399.730133,131.098679 400.206512,130.506119 400.993713,130.028992 
	C400.856812,130.648590 400.409058,131.152771 399.607513,131.674072 
z"/>
<path fill="#F7F7F7" opacity="1.000000" stroke="none" 
	d="
M388.909485,130.250244 
	C391.282288,130.000397 393.577423,130.000397 395.872528,130.000397 
	C395.876740,130.333984 395.880951,130.667557 395.885193,131.001144 
	C393.872223,131.001144 391.859283,131.001144 389.417053,131.000381 
	C388.935822,130.833115 388.883820,130.666611 388.909485,130.250244 
z"/>
<path fill="#304F0F" opacity="1.000000" stroke="none" 
	d="
M29.675413,50.893356 
	C31.375652,50.968700 32.798092,51.247421 35.016659,51.682140 
	C35.016659,49.971661 35.016659,48.473560 35.033485,46.580086 
	C36.846268,46.837189 38.642223,47.489666 40.761646,48.333290 
	C38.415279,50.314732 35.745449,52.105030 33.075619,53.895332 
	C33.344734,54.056927 33.613850,54.218521 33.882965,54.380119 
	C32.475788,56.229057 31.068613,58.077999 29.280376,59.921101 
	C28.923149,58.871178 28.946985,57.827091 28.952908,56.390877 
	C29.089201,54.364742 29.243408,52.730740 29.675413,50.893356 
z"/>
<path fill="#89BC35" opacity="1.000000" stroke="none" 
	d="
M51.758423,69.921959 
	C51.484386,69.972496 51.257282,70.104065 50.631721,70.622269 
	C47.300297,72.339333 44.148624,72.220001 42.998142,69.254944 
	C42.218231,67.244949 43.571472,64.407280 43.987839,62.380249 
	C43.992420,63.649651 43.995998,64.479195 43.964272,65.307388 
	C43.866264,67.865959 44.287209,70.350899 47.531380,69.841492 
	C48.818890,69.639328 51.004532,67.221123 50.789703,66.778542 
	C49.919556,64.985909 48.403919,63.417713 46.849003,62.092163 
	C46.265892,61.595070 44.926846,61.984715 44.139740,61.678108 
	C47.440845,58.701237 50.036095,60.790451 52.696262,62.258034 
	C52.696262,62.258034 52.800922,62.234131 52.717327,62.599785 
	C52.341965,65.284279 52.050194,67.603119 51.758423,69.921959 
z"/>
<path fill="#223508" opacity="1.000000" stroke="none" 
	d="
M43.970688,61.939774 
	C43.571472,64.407280 42.218231,67.244949 42.998142,69.254944 
	C44.148624,72.220001 47.300297,72.339333 50.536903,70.798325 
	C49.049809,75.060883 45.405281,73.498360 43.353420,71.890137 
	C41.555363,70.480835 40.478523,67.243370 40.396046,64.769676 
	C40.277401,61.211243 43.029320,58.886440 46.462872,58.903671 
	C48.591301,58.914352 50.711426,60.580055 52.765770,61.880447 
	C50.036095,60.790451 47.440845,58.701237 44.169563,61.695358 
	C43.992085,62.004581 43.970688,61.939774 43.970688,61.939774 
z"/>
<path fill="#304F0F" opacity="1.000000" stroke="none" 
	d="
M44.071014,46.827129 
	C44.521988,45.525383 45.402157,44.274174 46.634842,42.944973 
	C48.414864,43.309574 49.894321,43.634289 51.252998,44.233067 
	C52.289192,44.689724 53.172272,45.493816 54.144154,46.525101 
	C50.943298,46.897121 47.721756,46.887394 44.071014,46.827129 
z"/>
<path fill="#304F0F" opacity="1.000000" stroke="none" 
	d="
M33.114010,83.733948 
	C33.045971,82.276512 32.977932,80.819077 32.896023,79.064461 
	C31.414434,78.918388 30.054146,78.784271 28.385857,78.619789 
	C28.834187,77.469666 29.228815,76.457298 29.876377,75.244476 
	C31.551607,75.723602 32.973904,76.403198 34.674953,77.215981 
	C34.996151,78.424126 35.443302,80.106018 36.102226,82.283096 
	C36.313999,82.778290 36.443161,83.008804 36.128746,83.162109 
	C34.914227,83.454926 34.014118,83.594437 33.114010,83.733948 
z"/>
<path fill="#8BCD27" opacity="1.000000" stroke="none" 
	d="
M33.078423,84.099136 
	C34.014118,83.594437 34.914227,83.454926 36.455551,83.159889 
	C38.393814,83.335358 39.690861,83.666367 40.987904,83.997368 
	C40.987904,83.997368 41.192703,84.405884 41.193993,84.633408 
	C38.960487,84.960045 36.596161,84.898781 36.980591,88.663872 
	C35.904633,89.060112 34.840172,89.047867 33.206879,88.753090 
	C32.091202,88.310516 31.544352,88.150482 30.997501,87.990440 
	C31.679279,86.815071 32.361053,85.639702 33.078423,84.099136 
z"/>
<path fill="#304F0F" opacity="1.000000" stroke="none" 
	d="
M25.566158,66.213402 
	C25.566158,66.213402 25.795700,66.308487 26.255554,66.185715 
	C27.416927,65.939346 28.118444,65.815742 28.819960,65.692139 
	C29.583302,67.735573 30.346643,69.779007 30.854342,71.941994 
	C28.790171,70.599380 26.981642,69.137222 25.289585,67.146797 
	C25.406057,66.618538 25.566158,66.213402 25.566158,66.213402 
z"/>
<path fill="#223508" opacity="1.000000" stroke="none" 
	d="
M52.133461,69.903572 
	C52.050194,67.603119 52.341965,65.284279 52.676212,62.565277 
	C55.927814,64.827751 55.937077,67.403267 52.133461,69.903572 
z"/>
<path fill="#85BB30" opacity="1.000000" stroke="none" 
	d="
M29.015430,65.497398 
	C28.118444,65.815742 27.416927,65.939346 26.363594,66.124390 
	C26.042854,65.324463 26.073931,64.463081 26.508396,63.244907 
	C27.575247,62.985592 28.238708,63.083073 28.902170,63.180550 
	C29.005081,63.887920 29.107992,64.595291 29.015430,65.497398 
z"/>
<path fill="#304F0F" opacity="1.000000" stroke="none" 
	d="
M28.915926,62.770172 
	C28.238708,63.083073 27.575247,62.985592 26.583454,62.822060 
	C26.255121,62.756012 26.131578,62.804089 26.053864,62.596245 
	C25.695147,62.148685 25.414143,61.908970 25.133137,61.669250 
	C26.180470,61.060341 27.227804,60.451427 28.597179,59.870724 
	C28.922707,60.719219 28.926195,61.539505 28.915926,62.770172 
z"/>
<path fill="#8CCC27" opacity="1.000000" stroke="none" 
	d="
M40.961166,83.623611 
	C39.690861,83.666367 38.393814,83.335358 36.769966,83.006577 
	C36.443161,83.008804 36.313999,82.778290 36.262108,82.657944 
	C37.784958,82.775009 39.359692,83.012428 40.961166,83.623611 
z"/>
<path fill="#8CCC27" opacity="1.000000" stroke="none" 
	d="
M48.242264,86.569305 
	C47.516144,86.909630 46.690144,86.955826 45.451820,87.007492 
	C46.073792,86.767044 47.108086,86.521103 48.242264,86.569305 
z"/>
<path fill="#8CCC27" opacity="1.000000" stroke="none" 
	d="
M44.809242,87.156204 
	C44.911427,87.336723 44.751972,87.572174 44.348213,87.879349 
	C44.213840,87.686638 44.361740,87.439987 44.809242,87.156204 
z"/>
<path fill="#8CCC27" opacity="1.000000" stroke="none" 
	d="
M47.959206,94.078918 
	C47.552044,93.782364 47.285061,93.214737 47.027412,92.324432 
	C47.756474,92.056480 48.476196,92.111183 49.479637,92.187462 
	C48.849377,92.927368 48.474377,93.367607 47.959206,94.078918 
z"/>
<path fill="#8CCC27" opacity="1.000000" stroke="none" 
	d="
M30.629864,87.994873 
	C31.544352,88.150482 32.091202,88.310516 32.810097,88.703903 
	C31.307833,88.874336 29.633524,88.811417 28.007980,88.378433 
	C28.791904,88.005348 29.527063,88.002327 30.629864,87.994873 
z"/>
<path fill="#85BB30" opacity="1.000000" stroke="none" 
	d="
M23.357990,77.766457 
	C23.130320,76.935379 23.135101,75.892731 23.216579,74.467606 
	C23.392328,75.241714 23.491385,76.398300 23.357990,77.766457 
z"/>
<path fill="#85BB30" opacity="1.000000" stroke="none" 
	d="
M25.194281,66.153900 
	C25.566158,66.213402 25.406057,66.618538 25.288061,66.800858 
	C24.879490,66.814499 24.588913,66.645821 24.185551,66.249107 
	C24.322645,66.045502 24.572523,66.069946 25.194281,66.153900 
z"/>
<path fill="#85BB30" opacity="1.000000" stroke="none" 
	d="
M25.187960,61.949226 
	C25.414143,61.908970 25.695147,62.148685 26.036650,62.660255 
	C25.812361,62.697800 25.527573,62.463497 25.187960,61.949226 
z"/>
<path fill="#8CDC10" opacity="1.000000" stroke="none" 
	d="
M43.962265,61.987328 
	C44.926846,61.984715 46.265892,61.595070 46.849003,62.092163 
	C48.403919,63.417713 49.919556,64.985909 50.789703,66.778542 
	C51.004532,67.221123 48.818890,69.639328 47.531380,69.841492 
	C44.287209,70.350899 43.866264,67.865959 43.964272,65.307388 
	C43.995998,64.479195 43.992420,63.649651 43.987839,62.380249 
	C43.970688,61.939774 43.992085,62.004581 43.962265,61.987328 
z"/>
</svg>